<svg t="1581932660843"  viewBox="0 0 1024 1024" version="1.1" xmlns="http://www.w3.org/2000/svg" p-id="1320" width="128" height="128" xmlns:xlink="http://www.w3.org/1999/xlink"><defs><style type="text/css"></style></defs><path d="M512 909.061224c-2.089796 0-3.657143-0.522449-5.746939-1.044897-3.134694-1.044898-83.069388-25.077551-164.571428-79.934694-109.714286-74.187755-167.706122-169.795918-167.706123-276.375511V134.791837c0-7.836735 4.702041-14.628571 11.493878-18.285715 7.314286-3.134694 15.673469-2.089796 21.420408 3.134694 104.489796 91.428571 214.726531 52.767347 288.391837 4.702041 1.567347-1.044898 3.134694-2.089796 5.224489-3.134694 3.657143-2.612245 7.314286-3.657143 10.971429-3.134694 3.657143 0 7.314286 0.522449 10.971429 3.134694 2.089796 1.044898 3.657143 2.089796 5.224489 3.134694 73.665306 48.587755 183.379592 87.24898 288.391837-4.702041 5.746939-5.22449 14.106122-6.269388 21.420408-3.134694 7.314286 3.134694 11.493878 10.44898 11.493878 18.285715v416.914285c0 107.62449-57.991837 203.232653-167.706123 277.420409-80.979592 54.857143-160.914286 78.367347-164.571428 78.889796-1.044898 1.044898-2.612245 1.044898-4.702041 1.044897z m13.061224-756.506122z m0 0z m0 0z m0 0z m-26.122448 0z m26.122448 0z m-26.122448 0z m26.122448 0z m-26.122448 0z m26.122448 0z m-26.122448 0z m26.122448 0z m-26.122448 0z m0 0z m0 0z m0 0z m0 0z m0 0z m26.644897 0z m-27.167346 0z m27.167346 0z m-27.167346 0z m27.167346 0z m-27.167346 0z m27.167346-0.522449z m-27.167346 0z m27.167346 0z m-27.167346 0z m27.167346 0z m-27.167346 0z m27.167346 0z m-27.167346 0z m27.167346 0z m-27.167346 0z m27.167346 0z m-27.167346 0z m27.167346 0z m-27.167346 0z m27.167346 0z m-27.167346 0z m27.167346 0z m-27.167346 0z" fill="#16C4AF" p-id="1321"></path><path d="M487.444898 387.134694c0-0.522449-0.522449-1.567347-0.522449-2.089796 0-0.522449-0.522449-1.044898-0.522449-1.567347-0.522449-1.044898-1.044898-1.567347-1.044898-2.612245 0-0.522449-0.522449-1.044898-0.522449-1.044898-1.567347-2.089796-3.657143-4.179592-5.746939-5.746939-0.522449-0.522449-1.044898-0.522449-1.567347-0.522449-0.522449-0.522449-1.567347-1.044898-2.089796-1.044898-0.522449 0-1.044898-0.522449-2.089795-0.522449-0.522449 0-1.044898-0.522449-2.089796-0.522449s-2.612245-0.522449-3.657143-0.522448c-1.567347 0-2.612245 0-4.179592 0.522448-0.522449 0-1.044898 0.522449-1.567347 0.522449-0.522449 0-1.567347 0.522449-2.089796 0.522449-0.522449 0-1.044898 0.522449-1.567347 1.044898-0.522449 0.522449-1.044898 0.522449-2.089796 1.044898s-2.089796 1.567347-3.134694 2.612245L335.412245 492.669388c-8.359184 8.359184-8.359184 21.420408 0 29.779592 4.179592 4.179592 9.404082 6.269388 14.628571 6.269387s10.44898-2.089796 14.628572-6.269387l80.979592-80.979592V720.979592c0 11.493878 9.404082 20.897959 20.897959 20.897959s20.897959-9.404082 20.897959-20.897959V390.791837v-1.044898c0.522449-0.522449 0-1.567347 0-2.612245zM709.485714 501.55102c-8.359184-8.359184-21.420408-8.359184-29.779592 0l-80.979591 80.979592V303.020408c0-11.493878-9.404082-20.897959-20.89796-20.897959s-20.897959 9.404082-20.897959 20.897959v330.187755c0 1.567347 0 2.612245 0.522449 4.179592 0 0.522449 0.522449 1.044898 0.522449 1.567347 0 0.522449 0.522449 1.567347 0.522449 2.089796 0.522449 0.522449 0.522449 1.567347 1.044898 2.089796 0.522449 0.522449 0.522449 1.044898 1.044898 1.567347 1.567347 2.089796 3.657143 4.179592 5.746939 5.746939 0.522449 0.522449 1.044898 0.522449 1.567347 1.044898 0.522449 0.522449 1.567347 0.522449 2.089796 1.044898 0.522449 0.522449 1.567347 0.522449 2.089796 0.522448 0.522449 0 1.044898 0.522449 1.567347 0.522449 1.567347 0.522449 2.612245 0.522449 4.179591 0.522449s2.612245 0 4.179592-0.522449c0.522449 0 1.044898-0.522449 1.567347-0.522449 0.522449 0 1.567347-0.522449 2.089796-0.522448 0.522449-0.522449 1.567347-0.522449 2.089796-1.044898 0.522449-0.522449 1.044898-0.522449 1.567347-1.044898 1.044898-0.522449 2.089796-1.567347 3.134694-2.612245l116.506122-116.506123c8.359184-8.359184 8.359184-21.420408 0.522449-29.779592z" fill="#DCFFFA" p-id="1322"></path></svg>
